<svg xmlns="http://www.w3.org/2000/svg" viewBox="0 0 32 32" role="img" aria-labelledby="title">
  <title>Salary</title>
  <g fill="none" stroke="#f19abb" stroke-width="2.2" stroke-linecap="round" stroke-linejoin="round">
    <path d="M10.6 9V7.4A2.4 2.4 0 0 1 13 5h6a2.4 2.4 0 0 1 2.4 2.4V9"/>
    <path d="M5.8 10h20.4a2.8 2.8 0 0 1 2.8 2.8v11.4a2.8 2.8 0 0 1-2.8 2.8H5.8A2.8 2.8 0 0 1 3 24.2V12.8A2.8 2.8 0 0 1 5.8 10Z"/>
    <path d="M3 15.2c3.3 1.4 7.8 2.2 13 2.2s9.7-.8 13-2.2"/>
    <path d="M13.5 16.1h5v3.2h-5z"/>
  </g>
</svg>
