<svg xmlns="http://www.w3.org/2000/svg" viewBox="0 0 32 32" role="img" aria-labelledby="title">
  <title>Side income</title>
  <g fill="none" stroke="#f19abb" stroke-width="2.2" stroke-linecap="round" stroke-linejoin="round">
    <path d="M5.4 12.5A4.5 4.5 0 0 1 9.9 8h12.4a4.3 4.3 0 0 1 4.2 3.6"/>
    <path d="M5.4 14.3A4.3 4.3 0 0 1 9.7 10h12.1a2.2 2.2 0 0 1 2.2 2.2V25a2 2 0 0 1-2 2H7.9a2.5 2.5 0 0 1-2.5-2.5V14.3Z"/>
    <path d="M19.3 15.1H27a2 2 0 0 1 2 2v3.1a2 2 0 0 1-2 2h-7.7a3.55 3.55 0 1 1 0-7.1Z"/>
    <circle cx="19.3" cy="18.65" r="1"/>
    <path d="M10.7 6.4 19.8 4.7a2.2 2.2 0 0 1 2.5 1.7l.3 1.6"/>
  </g>
</svg>
