<svg xmlns="http://www.w3.org/2000/svg" viewBox="0 0 32 32" role="img" aria-labelledby="title">
  <title>Settings</title>
  <defs>
    <filter id="glow" x="-35%" y="-35%" width="170%" height="170%">
      <feGaussianBlur stdDeviation="1.05" result="blur"/>
      <feMerge>
        <feMergeNode in="blur"/>
        <feMergeNode in="SourceGraphic"/>
      </feMerge>
    </filter>
  </defs>
  <g fill="none" stroke="#b86cff" stroke-width="2.35" stroke-linecap="round" stroke-linejoin="round" filter="url(#glow)">
    <path d="M18.4 4.4 19.5 7a9.3 9.3 0 0 1 2.1 1.2l2.8-.4 2.3 4-1.7 2.2c.1.7.1 1.4 0 2.1l1.7 2.2-2.3 4-2.8-.4c-.7.5-1.4.9-2.1 1.2l-1.1 2.6h-4.7l-1.1-2.6a9.3 9.3 0 0 1-2.1-1.2l-2.8.4-2.3-4 1.7-2.2a8 8 0 0 1 0-2.1l-1.7-2.2 2.3-4 2.8.4c.7-.5 1.4-.9 2.1-1.2l1.1-2.6h4.7Z"/>
    <circle cx="16" cy="15.9" r="4.5"/>
  </g>
</svg>
