<svg xmlns="http://www.w3.org/2000/svg" viewBox="0 0 32 32" role="img" aria-labelledby="title">
  <title>Income</title>
  <defs>
    <filter id="glow" x="-35%" y="-35%" width="170%" height="170%">
      <feGaussianBlur stdDeviation="1.1" result="blur"/>
      <feMerge>
        <feMergeNode in="blur"/>
        <feMergeNode in="SourceGraphic"/>
      </feMerge>
    </filter>
  </defs>
  <g fill="none" stroke="#ffcae9" stroke-width="2.45" stroke-linecap="round" stroke-linejoin="round" filter="url(#glow)">
    <path d="M8 9.8h10.7l4.8 3.2v1.2"/>
    <path d="M5.8 12h17.4a3 3 0 0 1 3 3v8.2a3 3 0 0 1-3 3H5.8a3 3 0 0 1-3-3V15a3 3 0 0 1 3-3Z"/>
    <path d="M20.5 17.2h7.1v4.7h-7.1a2.35 2.35 0 0 1 0-4.7Z"/>
    <circle cx="21.1" cy="19.55" r="1.1" fill="#ffcae9" stroke="none"/>
    <path d="M11.6 7.6h7.8"/>
  </g>
</svg>
