<svg xmlns="http://www.w3.org/2000/svg" viewBox="0 0 32 32" role="img" aria-labelledby="title">
  <title>Reports</title>
  <defs>
    <filter id="glow" x="-35%" y="-35%" width="170%" height="170%">
      <feGaussianBlur stdDeviation="1.1" result="blur"/>
      <feMerge>
        <feMergeNode in="blur"/>
        <feMergeNode in="SourceGraphic"/>
      </feMerge>
    </filter>
  </defs>
  <g fill="none" stroke="#c783ff" stroke-width="2.45" stroke-linecap="round" stroke-linejoin="round" filter="url(#glow)">
    <path d="M5.2 27h21.6"/>
    <path d="M7.3 27V17.3a1.2 1.2 0 0 1 1.2-1.2h3.2a1.2 1.2 0 0 1 1.2 1.2V27"/>
    <path d="M14.1 27V11.2a1.2 1.2 0 0 1 1.2-1.2h3.2a1.2 1.2 0 0 1 1.2 1.2V27"/>
    <path d="M20.9 27V5.8a1.2 1.2 0 0 1 1.2-1.2h3.2a1.2 1.2 0 0 1 1.2 1.2V27"/>
  </g>
</svg>
